<mxfile host="www.draw.io" modified="2020-02-05T11:13:29.910Z" agent="Mozilla/5.0 (Windows NT 6.3; Win64; x64) AppleWebKit/537.36 (KHTML, like Gecko) Chrome/79.0.3945.130 Safari/537.36" etag="4BNOvkUb7epELYgfgLqU" version="12.6.5" type="github">
  <diagram id="DsG1wxvjK8qaqVe2RgD-" name="Page-1">
    <mxGraphModel dx="868" dy="450" grid="1" gridSize="10" guides="1" tooltips="1" connect="1" arrows="1" fold="1" page="1" pageScale="1" pageWidth="850" pageHeight="1100" math="0" shadow="0">
      <root>
        <mxCell id="0"/>
        <mxCell id="1" parent="0"/>
        <mxCell id="QVSZ0UXWAZyBtxWXudVZ-18" value="API Caller" style="shape=umlLifeline;perimeter=lifelinePerimeter;whiteSpace=wrap;html=1;container=1;collapsible=0;recursiveResize=0;outlineConnect=0;fillColor=#cce5ff;strokeColor=#36393d;" parent="1" vertex="1">
          <mxGeometry x="90" y="50" width="100" height="520" as="geometry"/>
        </mxCell>
        <mxCell id="QVSZ0UXWAZyBtxWXudVZ-23" value="" style="html=1;points=[];perimeter=orthogonalPerimeter;fillColor=#cce5ff;strokeColor=#36393d;" parent="QVSZ0UXWAZyBtxWXudVZ-18" vertex="1">
          <mxGeometry x="45" y="70" width="10" height="360" as="geometry"/>
        </mxCell>
        <mxCell id="QVSZ0UXWAZyBtxWXudVZ-21" value="TrustMark UID API" style="shape=umlLifeline;perimeter=lifelinePerimeter;whiteSpace=wrap;html=1;container=1;collapsible=0;recursiveResize=0;outlineConnect=0;fillColor=#CCFF99;" parent="1" vertex="1">
          <mxGeometry x="330" y="50" width="100" height="520" as="geometry"/>
        </mxCell>
        <mxCell id="QVSZ0UXWAZyBtxWXudVZ-25" value="" style="html=1;points=[];perimeter=orthogonalPerimeter;fillColor=#CCFF99;" parent="QVSZ0UXWAZyBtxWXudVZ-21" vertex="1">
          <mxGeometry x="45" y="90" width="10" height="360" as="geometry"/>
        </mxCell>
        <mxCell id="QVSZ0UXWAZyBtxWXudVZ-22" value="UID Database" style="shape=umlLifeline;perimeter=lifelinePerimeter;whiteSpace=wrap;html=1;container=1;collapsible=0;recursiveResize=0;outlineConnect=0;fillColor=#fad9d5;strokeColor=#ae4132;" parent="1" vertex="1">
          <mxGeometry x="620" y="50" width="100" height="520" as="geometry"/>
        </mxCell>
        <mxCell id="QVSZ0UXWAZyBtxWXudVZ-26" value="" style="html=1;points=[];perimeter=orthogonalPerimeter;fillColor=#fad9d5;strokeColor=#ae4132;" parent="QVSZ0UXWAZyBtxWXudVZ-22" vertex="1">
          <mxGeometry x="45" y="120" width="10" height="50" as="geometry"/>
        </mxCell>
        <mxCell id="QVSZ0UXWAZyBtxWXudVZ-30" value="createTmkUniqueId" style="text;html=1;align=center;verticalAlign=middle;resizable=0;points=[];autosize=1;" parent="1" vertex="1">
          <mxGeometry x="218" y="130" width="120" height="20" as="geometry"/>
        </mxCell>
        <mxCell id="fAYGJxmuMDxZOxGaaZrq-2" value="frame" style="shape=umlFrame;whiteSpace=wrap;html=1;" vertex="1" parent="1">
          <mxGeometry x="230" y="590" width="300" height="200" as="geometry"/>
        </mxCell>
        <mxCell id="QVSZ0UXWAZyBtxWXudVZ-29" value="" style="html=1;verticalAlign=bottom;endArrow=block;exitX=0.5;exitY=0.083;exitDx=0;exitDy=0;exitPerimeter=0;" parent="1" target="QVSZ0UXWAZyBtxWXudVZ-21" edge="1" source="QVSZ0UXWAZyBtxWXudVZ-23">
          <mxGeometry width="80" relative="1" as="geometry">
            <mxPoint x="150" y="150" as="sourcePoint"/>
            <mxPoint x="220" y="150" as="targetPoint"/>
          </mxGeometry>
        </mxCell>
        <mxCell id="fAYGJxmuMDxZOxGaaZrq-6" value="Query For TMKUniqueId Using FICA,EmployerId&lt;br&gt;" style="text;html=1;align=center;verticalAlign=middle;resizable=0;points=[];autosize=1;" vertex="1" parent="1">
          <mxGeometry x="383.5" y="170" width="270" height="20" as="geometry"/>
        </mxCell>
        <mxCell id="fAYGJxmuMDxZOxGaaZrq-7" value="" style="html=1;verticalAlign=bottom;endArrow=block;exitX=0.5;exitY=0.083;exitDx=0;exitDy=0;exitPerimeter=0;" edge="1" parent="1" target="QVSZ0UXWAZyBtxWXudVZ-22">
          <mxGeometry width="80" relative="1" as="geometry">
            <mxPoint x="380.5" y="189.88" as="sourcePoint"/>
            <mxPoint x="620" y="189.88" as="targetPoint"/>
          </mxGeometry>
        </mxCell>
        <mxCell id="fAYGJxmuMDxZOxGaaZrq-9" value="return" style="html=1;verticalAlign=bottom;endArrow=open;dashed=1;endSize=8;" edge="1" parent="1">
          <mxGeometry relative="1" as="geometry">
            <mxPoint x="160" y="840" as="sourcePoint"/>
            <mxPoint x="80" y="840" as="targetPoint"/>
          </mxGeometry>
        </mxCell>
        <mxCell id="fAYGJxmuMDxZOxGaaZrq-10" value="return" style="html=1;verticalAlign=bottom;endArrow=open;dashed=1;endSize=8;" edge="1" parent="1">
          <mxGeometry relative="1" as="geometry">
            <mxPoint x="150" y="870" as="sourcePoint"/>
            <mxPoint x="70" y="870" as="targetPoint"/>
          </mxGeometry>
        </mxCell>
        <mxCell id="fAYGJxmuMDxZOxGaaZrq-11" value="return" style="html=1;verticalAlign=bottom;endArrow=open;dashed=1;endSize=8;" edge="1" parent="1">
          <mxGeometry relative="1" as="geometry">
            <mxPoint x="180" y="820" as="sourcePoint"/>
            <mxPoint x="100" y="820" as="targetPoint"/>
          </mxGeometry>
        </mxCell>
        <mxCell id="fAYGJxmuMDxZOxGaaZrq-12" value="" style="html=1;verticalAlign=bottom;endArrow=open;dashed=1;endSize=8;" edge="1" parent="1" target="QVSZ0UXWAZyBtxWXudVZ-21">
          <mxGeometry y="-50" relative="1" as="geometry">
            <mxPoint x="670" y="210" as="sourcePoint"/>
            <mxPoint x="590" y="210" as="targetPoint"/>
            <mxPoint as="offset"/>
          </mxGeometry>
        </mxCell>
        <mxCell id="fAYGJxmuMDxZOxGaaZrq-18" value="Return Query Results&lt;br&gt;" style="text;html=1;align=center;verticalAlign=middle;resizable=0;points=[];autosize=1;" vertex="1" parent="1">
          <mxGeometry x="470" y="190" width="130" height="20" as="geometry"/>
        </mxCell>
      </root>
    </mxGraphModel>
  </diagram>
</mxfile>
